<svg xmlns="http://www.w3.org/2000/svg" width="84" height="84" fill="none" viewBox="0 0 84 84"><path fill="#27FB6B" d="M81.0004 19.5357C81.233 19.9386 81.4595 20.3455 81.6798 20.7561C81.2798 20.4944 81.0123 20.0466 81.0004 19.5357Z"/><path fill="#27FB6B" d="M72.7872 9.17986C73.4862 9.83581 74.1642 10.5138 74.8201 11.2128C74.5665 11.6816 74.0704 12 73.5 12C72.6716 12 72 11.3284 72 10.5C72 9.92957 72.3184 9.43351 72.7872 9.17986Z"/><path fill="#27FB6B" d="M63.2439 2.32015C63.6545 2.54048 64.0614 2.767 64.4643 2.99958C63.9534 2.98766 63.5056 2.72025 63.2439 2.32015Z"/><path fill="#27FB6B" d="M19.5357 2.99958C19.9386 2.767 20.3455 2.54048 20.7561 2.32015C20.4944 2.72025 20.0466 2.98766 19.5357 2.99958Z"/><path fill="#27FB6B" d="M9.17986 11.2128C9.83581 10.5138 10.5138 9.83581 11.2128 9.17986C11.6816 9.43351 12 9.92957 12 10.5C12 11.3284 11.3284 12 10.5 12C9.92957 12 9.43351 11.6816 9.17986 11.2128Z"/><path fill="#27FB6B" d="M2.32015 20.7561C2.54048 20.3455 2.767 19.9386 2.99958 19.5357C2.98766 20.0466 2.72025 20.4944 2.32015 20.7561Z"/><path fill="#27FB6B" d="M81.6798 63.2439C81.4595 63.6545 81.233 64.0614 81.0004 64.4643C81.0123 63.9534 81.2798 63.5056 81.6798 63.2439Z"/><path fill="#27FB6B" d="M74.8201 72.7872C74.5665 72.3184 74.0704 72 73.5 72C72.6716 72 72 72.6716 72 73.5C72 74.0704 72.3184 74.5665 72.7872 74.8201C73.4862 74.1642 74.1642 73.4862 74.8201 72.7872Z"/><path fill="#27FB6B" d="M64.4643 81.0004C63.9534 81.0123 63.5056 81.2798 63.2439 81.6798C63.6545 81.4595 64.0614 81.233 64.4643 81.0004Z"/><path fill="#27FB6B" d="M20.7561 81.6798C20.4944 81.2798 20.0466 81.0123 19.5357 81.0004C19.9386 81.233 20.3455 81.4595 20.7561 81.6798Z"/><path fill="#27FB6B" d="M11.2128 74.8201C11.6816 74.5665 12 74.0704 12 73.5C12 72.6716 11.3284 72 10.5 72C9.92957 72 9.43351 72.3184 9.17986 72.7872C9.83581 73.4862 10.5138 74.1642 11.2128 74.8201Z"/><path fill="#27FB6B" d="M2.99958 64.4643C2.98766 63.9534 2.72025 63.5056 2.32015 63.2439C2.54048 63.6545 2.767 64.0614 2.99958 64.4643Z"/><path fill="#27FB6B" d="M30 1.5C30 2.32843 29.3284 3 28.5 3C27.6716 3 27 2.32843 27 1.5C27 0.671573 27.6716 0 28.5 0C29.3284 0 30 0.671573 30 1.5Z"/><path fill="#27FB6B" d="M39 1.5C39 2.32843 38.3284 3 37.5 3C36.6716 3 36 2.32843 36 1.5C36 0.671573 36.6716 0 37.5 0C38.3284 0 39 0.671573 39 1.5Z"/><path fill="#27FB6B" d="M48 1.5C48 2.32843 47.3284 3 46.5 3C45.6716 3 45 2.32843 45 1.5C45 0.671573 45.6716 0 46.5 0C47.3284 0 48 0.671573 48 1.5Z"/><path fill="#27FB6B" d="M57 1.5C57 2.32843 56.3284 3 55.5 3C54.6716 3 54 2.32843 54 1.5C54 0.671573 54.6716 0 55.5 0C56.3284 0 57 0.671573 57 1.5Z"/><path fill="#27FB6B" d="M21 10.5C21 11.3284 20.3284 12 19.5 12C18.6716 12 18 11.3284 18 10.5C18 9.67157 18.6716 9 19.5 9C20.3284 9 21 9.67157 21 10.5Z"/><path fill="#27FB6B" d="M30 10.5C30 11.3284 29.3284 12 28.5 12C27.6716 12 27 11.3284 27 10.5C27 9.67157 27.6716 9 28.5 9C29.3284 9 30 9.67157 30 10.5Z"/><path fill="#27FB6B" d="M39 10.5C39 11.3284 38.3284 12 37.5 12C36.6716 12 36 11.3284 36 10.5C36 9.67157 36.6716 9 37.5 9C38.3284 9 39 9.67157 39 10.5Z"/><path fill="#27FB6B" d="M48 10.5C48 11.3284 47.3284 12 46.5 12C45.6716 12 45 11.3284 45 10.5C45 9.67157 45.6716 9 46.5 9C47.3284 9 48 9.67157 48 10.5Z"/><path fill="#27FB6B" d="M57 10.5C57 11.3284 56.3284 12 55.5 12C54.6716 12 54 11.3284 54 10.5C54 9.67157 54.6716 9 55.5 9C56.3284 9 57 9.67157 57 10.5Z"/><path fill="#27FB6B" d="M66 10.5C66 11.3284 65.3284 12 64.5 12C63.6716 12 63 11.3284 63 10.5C63 9.67157 63.6716 9 64.5 9C65.3284 9 66 9.67157 66 10.5Z"/><path fill="#27FB6B" d="M12 19.5C12 20.3284 11.3284 21 10.5 21C9.67157 21 9 20.3284 9 19.5C9 18.6716 9.67157 18 10.5 18C11.3284 18 12 18.6716 12 19.5Z"/><path fill="#27FB6B" d="M21 19.5C21 20.3284 20.3284 21 19.5 21C18.6716 21 18 20.3284 18 19.5C18 18.6716 18.6716 18 19.5 18C20.3284 18 21 18.6716 21 19.5Z"/><path fill="#27FB6B" d="M30 19.5C30 20.3284 29.3284 21 28.5 21C27.6716 21 27 20.3284 27 19.5C27 18.6716 27.6716 18 28.5 18C29.3284 18 30 18.6716 30 19.5Z"/><path fill="#27FB6B" d="M39 19.5C39 20.3284 38.3284 21 37.5 21C36.6716 21 36 20.3284 36 19.5C36 18.6716 36.6716 18 37.5 18C38.3284 18 39 18.6716 39 19.5Z"/><path fill="#27FB6B" d="M48 19.5C48 20.3284 47.3284 21 46.5 21C45.6716 21 45 20.3284 45 19.5C45 18.6716 45.6716 18 46.5 18C47.3284 18 48 18.6716 48 19.5Z"/><path fill="#27FB6B" d="M57 19.5C57 20.3284 56.3284 21 55.5 21C54.6716 21 54 20.3284 54 19.5C54 18.6716 54.6716 18 55.5 18C56.3284 18 57 18.6716 57 19.5Z"/><path fill="#27FB6B" d="M66 19.5C66 20.3284 65.3284 21 64.5 21C63.6716 21 63 20.3284 63 19.5C63 18.6716 63.6716 18 64.5 18C65.3284 18 66 18.6716 66 19.5Z"/><path fill="#27FB6B" d="M75 19.5C75 20.3284 74.3284 21 73.5 21C72.6716 21 72 20.3284 72 19.5C72 18.6716 72.6716 18 73.5 18C74.3284 18 75 18.6716 75 19.5Z"/><path fill="#27FB6B" d="M3 28.5C3 29.3284 2.32843 30 1.5 30C0.671573 30 0 29.3284 0 28.5C0 27.6716 0.671573 27 1.5 27C2.32843 27 3 27.6716 3 28.5Z"/><path fill="#27FB6B" d="M12 28.5C12 29.3284 11.3284 30 10.5 30C9.67157 30 9 29.3284 9 28.5C9 27.6716 9.67157 27 10.5 27C11.3284 27 12 27.6716 12 28.5Z"/><path fill="#27FB6B" d="M21 28.5C21 29.3284 20.3284 30 19.5 30C18.6716 30 18 29.3284 18 28.5C18 27.6716 18.6716 27 19.5 27C20.3284 27 21 27.6716 21 28.5Z"/><path fill="#27FB6B" d="M30 28.5C30 29.3284 29.3284 30 28.5 30C27.6716 30 27 29.3284 27 28.5C27 27.6716 27.6716 27 28.5 27C29.3284 27 30 27.6716 30 28.5Z"/><path fill="#27FB6B" d="M39 28.5C39 29.3284 38.3284 30 37.5 30C36.6716 30 36 29.3284 36 28.5C36 27.6716 36.6716 27 37.5 27C38.3284 27 39 27.6716 39 28.5Z"/><path fill="#27FB6B" d="M48 28.5C48 29.3284 47.3284 30 46.5 30C45.6716 30 45 29.3284 45 28.5C45 27.6716 45.6716 27 46.5 27C47.3284 27 48 27.6716 48 28.5Z"/><path fill="#27FB6B" d="M57 28.5C57 29.3284 56.3284 30 55.5 30C54.6716 30 54 29.3284 54 28.5C54 27.6716 54.6716 27 55.5 27C56.3284 27 57 27.6716 57 28.5Z"/><path fill="#27FB6B" d="M66 28.5C66 29.3284 65.3284 30 64.5 30C63.6716 30 63 29.3284 63 28.5C63 27.6716 63.6716 27 64.5 27C65.3284 27 66 27.6716 66 28.5Z"/><path fill="#27FB6B" d="M75 28.5C75 29.3284 74.3284 30 73.5 30C72.6716 30 72 29.3284 72 28.5C72 27.6716 72.6716 27 73.5 27C74.3284 27 75 27.6716 75 28.5Z"/><path fill="#27FB6B" d="M84 28.5C84 29.3284 83.3284 30 82.5 30C81.6716 30 81 29.3284 81 28.5C81 27.6716 81.6716 27 82.5 27C83.3284 27 84 27.6716 84 28.5Z"/><path fill="#27FB6B" d="M3 37.5C3 38.3284 2.32843 39 1.5 39C0.671573 39 0 38.3284 0 37.5C0 36.6716 0.671573 36 1.5 36C2.32843 36 3 36.6716 3 37.5Z"/><path fill="#27FB6B" d="M12 37.5C12 38.3284 11.3284 39 10.5 39C9.67157 39 9 38.3284 9 37.5C9 36.6716 9.67157 36 10.5 36C11.3284 36 12 36.6716 12 37.5Z"/><path fill="#27FB6B" d="M21 37.5C21 38.3284 20.3284 39 19.5 39C18.6716 39 18 38.3284 18 37.5C18 36.6716 18.6716 36 19.5 36C20.3284 36 21 36.6716 21 37.5Z"/><path fill="#27FB6B" d="M30 37.5C30 38.3284 29.3284 39 28.5 39C27.6716 39 27 38.3284 27 37.5C27 36.6716 27.6716 36 28.5 36C29.3284 36 30 36.6716 30 37.5Z"/><path fill="#27FB6B" d="M39 37.5C39 38.3284 38.3284 39 37.5 39C36.6716 39 36 38.3284 36 37.5C36 36.6716 36.6716 36 37.5 36C38.3284 36 39 36.6716 39 37.5Z"/><path fill="#27FB6B" d="M48 37.5C48 38.3284 47.3284 39 46.5 39C45.6716 39 45 38.3284 45 37.5C45 36.6716 45.6716 36 46.5 36C47.3284 36 48 36.6716 48 37.5Z"/><path fill="#27FB6B" d="M57 37.5C57 38.3284 56.3284 39 55.5 39C54.6716 39 54 38.3284 54 37.5C54 36.6716 54.6716 36 55.5 36C56.3284 36 57 36.6716 57 37.5Z"/><path fill="#27FB6B" d="M66 37.5C66 38.3284 65.3284 39 64.5 39C63.6716 39 63 38.3284 63 37.5C63 36.6716 63.6716 36 64.5 36C65.3284 36 66 36.6716 66 37.5Z"/><path fill="#27FB6B" d="M75 37.5C75 38.3284 74.3284 39 73.5 39C72.6716 39 72 38.3284 72 37.5C72 36.6716 72.6716 36 73.5 36C74.3284 36 75 36.6716 75 37.5Z"/><path fill="#27FB6B" d="M84 37.5C84 38.3284 83.3284 39 82.5 39C81.6716 39 81 38.3284 81 37.5C81 36.6716 81.6716 36 82.5 36C83.3284 36 84 36.6716 84 37.5Z"/><path fill="#27FB6B" d="M3 46.5C3 47.3284 2.32843 48 1.5 48C0.671573 48 0 47.3284 0 46.5C0 45.6716 0.671573 45 1.5 45C2.32843 45 3 45.6716 3 46.5Z"/><path fill="#27FB6B" d="M12 46.5C12 47.3284 11.3284 48 10.5 48C9.67157 48 9 47.3284 9 46.5C9 45.6716 9.67157 45 10.5 45C11.3284 45 12 45.6716 12 46.5Z"/><path fill="#27FB6B" d="M21 46.5C21 47.3284 20.3284 48 19.5 48C18.6716 48 18 47.3284 18 46.5C18 45.6716 18.6716 45 19.5 45C20.3284 45 21 45.6716 21 46.5Z"/><path fill="#27FB6B" d="M30 46.5C30 47.3284 29.3284 48 28.5 48C27.6716 48 27 47.3284 27 46.5C27 45.6716 27.6716 45 28.5 45C29.3284 45 30 45.6716 30 46.5Z"/><path fill="#27FB6B" d="M39 46.5C39 47.3284 38.3284 48 37.5 48C36.6716 48 36 47.3284 36 46.5C36 45.6716 36.6716 45 37.5 45C38.3284 45 39 45.6716 39 46.5Z"/><path fill="#27FB6B" d="M48 46.5C48 47.3284 47.3284 48 46.5 48C45.6716 48 45 47.3284 45 46.5C45 45.6716 45.6716 45 46.5 45C47.3284 45 48 45.6716 48 46.5Z"/><path fill="#27FB6B" d="M57 46.5C57 47.3284 56.3284 48 55.5 48C54.6716 48 54 47.3284 54 46.5C54 45.6716 54.6716 45 55.5 45C56.3284 45 57 45.6716 57 46.5Z"/><path fill="#27FB6B" d="M66 46.5C66 47.3284 65.3284 48 64.5 48C63.6716 48 63 47.3284 63 46.5C63 45.6716 63.6716 45 64.5 45C65.3284 45 66 45.6716 66 46.5Z"/><path fill="#27FB6B" d="M75 46.5C75 47.3284 74.3284 48 73.5 48C72.6716 48 72 47.3284 72 46.5C72 45.6716 72.6716 45 73.5 45C74.3284 45 75 45.6716 75 46.5Z"/><path fill="#27FB6B" d="M84 46.5C84 47.3284 83.3284 48 82.5 48C81.6716 48 81 47.3284 81 46.5C81 45.6716 81.6716 45 82.5 45C83.3284 45 84 45.6716 84 46.5Z"/><path fill="#27FB6B" d="M3 55.5C3 56.3284 2.32843 57 1.5 57C0.671573 57 0 56.3284 0 55.5C0 54.6716 0.671573 54 1.5 54C2.32843 54 3 54.6716 3 55.5Z"/><path fill="#27FB6B" d="M12 55.5C12 56.3284 11.3284 57 10.5 57C9.67157 57 9 56.3284 9 55.5C9 54.6716 9.67157 54 10.5 54C11.3284 54 12 54.6716 12 55.5Z"/><path fill="#27FB6B" d="M21 55.5C21 56.3284 20.3284 57 19.5 57C18.6716 57 18 56.3284 18 55.5C18 54.6716 18.6716 54 19.5 54C20.3284 54 21 54.6716 21 55.5Z"/><path fill="#27FB6B" d="M30 55.5C30 56.3284 29.3284 57 28.5 57C27.6716 57 27 56.3284 27 55.5C27 54.6716 27.6716 54 28.5 54C29.3284 54 30 54.6716 30 55.5Z"/><path fill="#27FB6B" d="M39 55.5C39 56.3284 38.3284 57 37.5 57C36.6716 57 36 56.3284 36 55.5C36 54.6716 36.6716 54 37.5 54C38.3284 54 39 54.6716 39 55.5Z"/><path fill="#27FB6B" d="M48 55.5C48 56.3284 47.3284 57 46.5 57C45.6716 57 45 56.3284 45 55.5C45 54.6716 45.6716 54 46.5 54C47.3284 54 48 54.6716 48 55.5Z"/><path fill="#27FB6B" d="M57 55.5C57 56.3284 56.3284 57 55.5 57C54.6716 57 54 56.3284 54 55.5C54 54.6716 54.6716 54 55.5 54C56.3284 54 57 54.6716 57 55.5Z"/><path fill="#27FB6B" d="M66 55.5C66 56.3284 65.3284 57 64.5 57C63.6716 57 63 56.3284 63 55.5C63 54.6716 63.6716 54 64.5 54C65.3284 54 66 54.6716 66 55.5Z"/><path fill="#27FB6B" d="M75 55.5C75 56.3284 74.3284 57 73.5 57C72.6716 57 72 56.3284 72 55.5C72 54.6716 72.6716 54 73.5 54C74.3284 54 75 54.6716 75 55.5Z"/><path fill="#27FB6B" d="M84 55.5C84 56.3284 83.3284 57 82.5 57C81.6716 57 81 56.3284 81 55.5C81 54.6716 81.6716 54 82.5 54C83.3284 54 84 54.6716 84 55.5Z"/><path fill="#27FB6B" d="M12 64.5C12 65.3284 11.3284 66 10.5 66C9.67157 66 9 65.3284 9 64.5C9 63.6716 9.67157 63 10.5 63C11.3284 63 12 63.6716 12 64.5Z"/><path fill="#27FB6B" d="M21 64.5C21 65.3284 20.3284 66 19.5 66C18.6716 66 18 65.3284 18 64.5C18 63.6716 18.6716 63 19.5 63C20.3284 63 21 63.6716 21 64.5Z"/><path fill="#27FB6B" d="M30 64.5C30 65.3284 29.3284 66 28.5 66C27.6716 66 27 65.3284 27 64.5C27 63.6716 27.6716 63 28.5 63C29.3284 63 30 63.6716 30 64.5Z"/><path fill="#27FB6B" d="M39 64.5C39 65.3284 38.3284 66 37.5 66C36.6716 66 36 65.3284 36 64.5C36 63.6716 36.6716 63 37.5 63C38.3284 63 39 63.6716 39 64.5Z"/><path fill="#27FB6B" d="M48 64.5C48 65.3284 47.3284 66 46.5 66C45.6716 66 45 65.3284 45 64.5C45 63.6716 45.6716 63 46.5 63C47.3284 63 48 63.6716 48 64.5Z"/><path fill="#27FB6B" d="M57 64.5C57 65.3284 56.3284 66 55.5 66C54.6716 66 54 65.3284 54 64.5C54 63.6716 54.6716 63 55.5 63C56.3284 63 57 63.6716 57 64.5Z"/><path fill="#27FB6B" d="M66 64.5C66 65.3284 65.3284 66 64.5 66C63.6716 66 63 65.3284 63 64.5C63 63.6716 63.6716 63 64.5 63C65.3284 63 66 63.6716 66 64.5Z"/><path fill="#27FB6B" d="M75 64.5C75 65.3284 74.3284 66 73.5 66C72.6716 66 72 65.3284 72 64.5C72 63.6716 72.6716 63 73.5 63C74.3284 63 75 63.6716 75 64.5Z"/><path fill="#27FB6B" d="M21 73.5C21 74.3284 20.3284 75 19.5 75C18.6716 75 18 74.3284 18 73.5C18 72.6716 18.6716 72 19.5 72C20.3284 72 21 72.6716 21 73.5Z"/><path fill="#27FB6B" d="M30 73.5C30 74.3284 29.3284 75 28.5 75C27.6716 75 27 74.3284 27 73.5C27 72.6716 27.6716 72 28.5 72C29.3284 72 30 72.6716 30 73.5Z"/><path fill="#27FB6B" d="M39 73.5C39 74.3284 38.3284 75 37.5 75C36.6716 75 36 74.3284 36 73.5C36 72.6716 36.6716 72 37.5 72C38.3284 72 39 72.6716 39 73.5Z"/><path fill="#27FB6B" d="M48 73.5C48 74.3284 47.3284 75 46.5 75C45.6716 75 45 74.3284 45 73.5C45 72.6716 45.6716 72 46.5 72C47.3284 72 48 72.6716 48 73.5Z"/><path fill="#27FB6B" d="M57 73.5C57 74.3284 56.3284 75 55.5 75C54.6716 75 54 74.3284 54 73.5C54 72.6716 54.6716 72 55.5 72C56.3284 72 57 72.6716 57 73.5Z"/><path fill="#27FB6B" d="M66 73.5C66 74.3284 65.3284 75 64.5 75C63.6716 75 63 74.3284 63 73.5C63 72.6716 63.6716 72 64.5 72C65.3284 72 66 72.6716 66 73.5Z"/><path fill="#27FB6B" d="M30 82.5C30 83.3284 29.3284 84 28.5 84C27.6716 84 27 83.3284 27 82.5C27 81.6716 27.6716 81 28.5 81C29.3284 81 30 81.6716 30 82.5Z"/><path fill="#27FB6B" d="M39 82.5C39 83.3284 38.3284 84 37.5 84C36.6716 84 36 83.3284 36 82.5C36 81.6716 36.6716 81 37.5 81C38.3284 81 39 81.6716 39 82.5Z"/><path fill="#27FB6B" d="M48 82.5C48 83.3284 47.3284 84 46.5 84C45.6716 84 45 83.3284 45 82.5C45 81.6716 45.6716 81 46.5 81C47.3284 81 48 81.6716 48 82.5Z"/><path fill="#27FB6B" d="M57 82.5C57 83.3284 56.3284 84 55.5 84C54.6716 84 54 83.3284 54 82.5C54 81.6716 54.6716 81 55.5 81C56.3284 81 57 81.6716 57 82.5Z"/></svg>